<svg xmlns="http://www.w3.org/2000/svg" width="300" height="49" viewBox="0 0 300 49">
  <g id="Group_2" data-name="Group 2" transform="translate(-590 -80)">
    <text id="NEXANIME" transform="translate(659 119)" fill="#b60000" font-size="40" font-family="Gore-Regular, Gore"><tspan x="0" y="0">NEXANIME</tspan></text>
    <g id="Group_1" data-name="Group 1" transform="translate(40 9.061)">
      <path id="Polygon_1" data-name="Polygon 1" d="M9.518,6.161a4,4,0,0,1,6.965,0l6.144,10.871A4,4,0,0,1,19.144,23H6.856a4,4,0,0,1-3.482-5.968Z" transform="translate(591 93.939) rotate(180)" fill="#b60000"/>
      <path id="Polygon_3" data-name="Polygon 3" d="M9.518,6.161a4,4,0,0,1,6.965,0l6.144,10.871A4,4,0,0,1,19.144,23H6.856a4,4,0,0,1-3.482-5.968Z" transform="translate(573 83.939) rotate(90)" fill="#f5cf2d"/>
      <path id="Polygon_4" data-name="Polygon 4" d="M9.518,6.161a4,4,0,0,1,6.965,0l6.144,10.871A4,4,0,0,1,19.144,23H6.856a4,4,0,0,1-3.482-5.968Z" transform="translate(581 109.939) rotate(-90)" fill="#f5cf2d"/>
      <path id="Polygon_2" data-name="Polygon 2" d="M9.518,6.161a4,4,0,0,1,6.965,0l6.144,10.871A4,4,0,0,1,19.144,23H6.856a4,4,0,0,1-3.482-5.968Z" transform="translate(565 95.939)" fill="#b60000"/>
    </g>
  </g>
</svg>
